Coordinates
version=1
nRows=14
nColumns=40
inDegrees=yes

Units are S.I. units (second, meters, Newtons, ...)
If the header above contains a line with 'inDegrees', this indicates whether rotational values are in degrees (yes) or radians (no).

endheader
time	pelvis_tilt	pelvis_list	pelvis_rotation	pelvis_tx	pelvis_ty	pelvis_tz	hip_flexion_r	hip_adduction_r	hip_rotation_r	knee_angle_r	knee_angle_r_beta	ankle_angle_r	subtalar_angle_r	mtp_angle_r	hip_flexion_l	hip_adduction_l	hip_rotation_l	knee_angle_l	knee_angle_l_beta	ankle_angle_l	subtalar_angle_l	mtp_angle_l	lumbar_extension	lumbar_bending	lumbar_rotation	arm_flex_r	arm_add_r	arm_rot_r	elbow_flex_r	pro_sup_r	wrist_flex_r	wrist_dev_r	arm_flex_l	arm_add_l	arm_rot_l	elbow_flex_l	pro_sup_l	wrist_flex_l	wrist_dev_l
      1.00000000	     14.28644896	     -0.81238399	     -2.66543988	     -0.26956738	      1.06596246	     -1.06050132	      6.81946416	      0.06005073	     -4.51287453	      0.67964335	      0.01186201	     -4.18997124	      0.00000000	      0.00000000	     -8.34404587	      2.79954113	    -10.95711993	     16.41163441	      0.28643706	     -1.43403150	      0.00000000	      0.00000000	    -25.39186005	     -4.42093115	      5.02175439	     20.43174802	     -9.11530090	     13.36881144	     35.91357270	     86.18250383	      0.00000000	      0.00000000	     17.19413130	    -17.24880892	     26.18290854	     51.90422114	     86.00624992	      0.00000000	      0.00000000
      1.00500000	     14.29557705	     -0.84207088	     -2.60840397	     -0.27010632	      1.06598877	     -1.06071157	      7.02269279	      0.07144708	     -4.57744229	      0.55981467	      0.00977061	     -4.34947018	      0.00000000	      0.00000000	     -8.34899639	      2.78830099	    -10.87222860	     16.33817352	      0.28515492	     -1.49161553	      0.00000000	      0.00000000	    -25.31438220	     -4.35668287	      4.92734080	     21.27575830	     -9.07562463	     13.65522638	     35.81000149	     86.89463092	      0.00000000	      0.00000000	     18.04686990	    -17.23589500	     26.57744280	     51.85787117	     86.77134354	      0.00000000	      0.00000000
      1.01000000	     14.31687757	     -0.86854443	     -2.60822769	     -0.27077978	      1.06604583	     -1.06076291	      7.26451261	      0.07450815	     -4.59285781	      0.53906051	      0.00940838	     -4.34308913	      0.00000000	      0.00000000	     -8.34816933	      2.77806839	    -10.87955149	     16.31593745	      0.28476683	     -1.51125124	      0.00000000	      0.00000000	    -25.32985256	     -4.31711830	      4.89645617	     22.02936930	     -8.97746117	     13.63176444	     36.06379612	     86.89181066	      0.00000000	      0.00000000	     18.74010544	    -17.09722228	     26.49822383	     52.08146711	     86.76881958	      0.00000000	      0.00000000
      1.01500000	     14.31058684	     -0.86041191	     -2.51253524	     -0.27146782	      1.06608081	     -1.06096700	      7.53886592	      0.03576271	     -4.71295680	      0.55102311	      0.00961717	     -4.46643051	      0.00000000	      0.00000000	     -8.27033962	      2.78360033	    -10.69209477	     16.35744507	      0.28549127	     -1.70945931	      0.00000000	      0.00000000	    -25.28790946	     -4.29209900	      4.81812588	     22.89055042	     -8.99466020	     13.97121445	     35.99513595	     86.91927406	      0.00000000	      0.00000000	     19.66741382	    -17.12172082	     26.95845816	     52.16006518	     86.84374139	      0.00000000	      0.00000000
      1.02000000	     14.32797779	     -0.87120924	     -2.46598482	     -0.27207140	      1.06619986	     -1.06099558	      7.76136078	      0.02932311	     -4.71742525	      0.54015082	      0.00942741	     -4.45569500	      0.00000000	      0.00000000	     -8.26651330	      2.77144507	    -10.72866496	     16.31582569	      0.28476488	     -1.69987855	      0.00000000	      0.00000000	    -25.28644676	     -4.26481817	      4.76491444	     23.64184236	     -8.86062414	     13.98025604	     36.25743428	     86.91771881	      0.00000000	      0.00000000	     20.41176868	    -16.95027571	     26.90726591	     52.40185836	     86.84077430	      0.00000000	      0.00000000
      1.02500000	     14.40808309	     -0.79322900	     -2.38061602	     -0.27274392	      1.06627996	     -1.06129034	      7.95650364	     -0.10646652	     -4.84680210	      0.55978634	      0.00977011	     -4.69853612	      0.00000000	      0.00000000	     -8.25703873	      2.85621240	    -10.58967161	     16.40422498	      0.28630774	     -1.79421502	      0.00000000	      0.00000000	    -25.31167891	     -4.30328958	      4.68511162	     24.53718070	     -8.96944101	     14.75742979	     36.16460109	     86.93127118	      0.00000000	      0.00000000	     21.51581927	    -17.05979557	     27.85597786	     52.40396475	     86.91708056	      0.00000000	      0.00000000
      1.03000000	     14.43213999	     -0.82704147	     -2.40958659	     -0.27318371	      1.06634698	     -1.06128817	      8.15895531	     -0.08388806	     -4.81693608	      0.55826172	      0.00974351	     -4.68532174	      0.00000000	      0.00000000	     -8.26732675	      2.81544725	    -10.67371413	     16.34296498	      0.28523855	     -1.75527809	      0.00000000	      0.00000000	    -25.28106261	     -4.28479524	      4.66495320	     25.33984583	     -8.86864078	     14.73850390	     36.43390018	     86.92417200	      0.00000000	      0.00000000	     22.22648302	    -16.91505898	     27.78906000	     52.61750238	     86.90877143	      0.00000000	      0.00000000
      1.03500000	     14.45356846	     -0.84539168	     -2.31916494	     -0.27391026	      1.06634225	     -1.06159616	      8.37885307	     -0.10129049	     -4.75201583	      0.56883790	      0.00992809	     -4.68277817	      0.00000000	      0.00000000	     -8.25547774	      2.79826408	    -10.70994475	     16.31556072	      0.28476025	     -1.73841208	      0.00000000	      0.00000000	    -25.28527839	     -4.20483636	      4.59535838	     26.12202127	     -8.82375431	     14.75831931	     36.66223546	     86.91911266	      0.00000000	      0.00000000	     23.03805544	    -16.76840760	     27.76756575	     52.85422180	     86.90511803	      0.00000000	      0.00000000
      1.04000000	     14.48230468	     -0.88512818	     -2.28816808	     -0.27451031	      1.06638866	     -1.06176490	      8.57517867	     -0.09129133	     -4.71280962	      0.56897213	      0.00993044	     -4.68341994	      0.00000000	      0.00000000	     -8.26066544	      2.77260599	    -10.71800676	     16.28841712	      0.28428651	     -1.73029562	      0.00000000	      0.00000000	    -25.25878519	     -4.14215800	      4.55209739	     26.92947602	     -8.73278366	     14.78398567	     36.90768631	     86.91761801	      0.00000000	      0.00000000	     23.81808019	    -16.60085239	     27.74014038	     53.09052161	     86.90364363	      0.00000000	      0.00000000
      1.04500000	     14.52337032	     -0.93747108	     -2.25072576	     -0.27505320	      1.06645340	     -1.06187530	      8.75983966	     -0.06851928	     -4.62909916	      0.58804939	      0.01026340	     -4.73208621	      0.00000000	      0.00000000	     -8.27584402	      2.72321071	    -10.71341849	     16.27278336	      0.28401365	     -1.72915829	      0.00000000	      0.00000000	    -25.26113564	     -4.06997010	      4.51922791	     27.73663102	     -8.65010088	     14.84549364	     37.14086869	     86.91918896	      0.00000000	      0.00000000	     24.65650549	    -16.45282643	     27.72135558	     53.33019197	     86.90355590	      0.00000000	      0.00000000
      1.05000000	     14.72073409	     -1.06198941	     -2.20624602	     -0.27570812	      1.06670283	     -1.06189547	      8.76493955	      0.03113492	     -4.30095307	      0.58198211	      0.01015750	     -5.05680215	      0.00000000	      0.00000000	     -8.42933354	      2.59367662	    -10.61901123	     16.32282526	      0.28488704	     -1.73168497	      0.00000000	      0.00000000	    -25.35779078	     -3.96202532	      4.72647610	     28.65132660	     -9.20516369	     16.69814781	     37.35757773	     86.66763508	      0.00000000	      0.00000000	     26.09518965	    -16.60008675	     29.48890263	     53.19964445	     86.76153334	      0.00000000	      0.00000000
      1.05500000	     14.78312043	     -1.19229024	     -2.11087628	     -0.27606751	      1.06670889	     -1.06200621	      8.86556567	      0.14302183	     -4.24545485	      0.54978716	      0.00959560	     -5.13426289	      0.00000000	      0.00000000	     -8.41688563	      2.42393831	    -10.62915838	     16.44643794	      0.28704449	     -1.70383324	      0.00000000	      0.00000000	    -25.33613081	     -3.77868501	      4.68571993	     29.50029370	     -9.02600693	     16.78311210	     37.31231472	     85.14110783	      0.00000000	      0.00000000	     26.99559433	    -16.48327520	     29.80826349	     53.36763669	     85.32105290	      0.00000000	      0.00000000
      1.06000000	     14.80511180	     -1.19921439	     -2.10410166	     -0.27651393	      1.06673444	     -1.06216356	      9.06720764	      0.13285369	     -4.21840544	      0.57193787	      0.00998220	     -5.13196603	      0.00000000	      0.00000000	     -8.41775023	      2.44069047	    -10.65504201	     16.41214547	      0.28644598	     -1.69136909	      0.00000000	      0.00000000	    -25.28714864	     -3.75719874	      4.65026185	     30.31631326	     -8.89087754	     16.74919135	     37.60521709	     85.21564492	      0.00000000	      0.00000000	     27.74479317	    -16.26195714	     29.71797293	     53.62834611	     85.39139084	      0.00000000	      0.00000000
      1.06500000	     14.84317545	     -1.21917073	     -2.04464758	     -0.27706739	      1.06675940	     -1.06235019	      9.24228596	      0.12062024	     -4.11783339	      0.59297001	      0.01034928	     -5.16402956	      0.00000000	      0.00000000	     -8.42425920	      2.42957146	    -10.64797588	     16.39810790	      0.28620097	     -1.68249518	      0.00000000	      0.00000000	    -25.28680967	     -3.71378268	      4.58096672	     31.10692315	     -8.81331755	     16.72238725	     37.85892576	     85.30036879	      0.00000000	      0.00000000	     28.59661706	    -16.10987720	     29.61661806	     53.88277961	     85.47047813	      0.00000000	      0.00000000
